# xmcd
# 
# Track frame offsets:
#     150
#     14937
#     36900
#     53700
#     68987
#     80665
#     98365
#     109700
#     123107
#     136280
#     149105
#     171820
#     185125
#     205557
#     217395
#     228055
# 
# Disc length: 3206
# 
# Revision: 2
# Processed by: cddbd v1.5.2PL0 Copyright (c) Steve Scherf et al.
# Submitted via: fre:ac v1.0.31
# 
DISCID=ec0c8410
DTITLE=Various Artist - Goldene Schlagersouvenirs - CD 2
DYEAR=1988
DGENRE=Schlager
TTITLE0=Udo Jürgens - Merci Cherie
TTITLE1=Jonny Hill - Ruf Teddy Bär Eins Vier
TTITLE2=Geschwister Leismann - Jambalaya
TTITLE3=Bata Illic - Schlag die Tür nicht zu
TTITLE4=Lala Andersen - Die weißen Möwen von Piräus
TTITLE5=Ulli Martin - Monika
TTITLE6=Freddy Breck - Muß I denn
TTITLE7=Roy Black - Bleib bei mir
TTITLE8=Peter Kraus - Wenn Teenager träumen
TTITLE9=Harald Juhnke und die Rosy-Singers - Schorsch, du mußt nach Amerika
TTITLE10=René Kollo - Lieber Leierkastenmann
TTITLE11=Günter Pfitzmann - Irgendwo ist immer etwas offen in Berlin
TTITLE12=Ursula Monn - Lied einer Berliner Garderobenfrau
TTITLE13=Gus Backus - Brauner Bär
TTITLE14=Paul Kuhn - Ein paar Oldies im Radio
TTITLE15=Sven Olsen - Dankeschön und auf Wiedersehn
EXTD=
EXTT0=
EXTT1=
EXTT2=
EXTT3=
EXTT4=
EXTT5=
EXTT6=
EXTT7=
EXTT8=
EXTT9=
EXTT10=
EXTT11=
EXTT12=
EXTT13=
EXTT14=
EXTT15=
PLAYORDER=
